<?xml version="1.0" encoding="iso-8859-1"?>
<!-- Generator: Adobe Illustrator 19.0.0, SVG Export Plug-In . SVG Version: 6.00 Build 0)  -->
<svg version="1.1" id="Layer_1" xmlns="http://www.w3.org/2000/svg" xmlns:xlink="http://www.w3.org/1999/xlink" x="0px" y="0px"
	 viewBox="0 0 466 466" style="enable-background:new 0 0 466 466;" xml:space="preserve">
<g>
	<path style="fill:#37495E;" d="M365.353,447.559c-74.056-120.737-101.492-245.38-104.118-366.118c-24.887,0-31.584,0-56.471,0
		c-2.626,120.737-30.061,245.38-104.118,366.118c23.145,0,46.291,0,69.437,0c-0.055-1.447-0.084-5.903-0.084-7.368
		c0-46.806,28.654-84.75,64-84.75s64,37.944,64,84.75c0,1.465-0.028,5.921-0.083,7.368
		C320.395,447.559,342.874,447.559,365.353,447.559z M255.059,292.441h-45v-17.725c0-12.302,9.973-22.275,22.275-22.275h0.45
		c12.302,0,22.275,9.973,22.275,22.275L255.059,292.441L255.059,292.441z"/>
	<rect x="175.206" y="183" style="fill:#ff9a44;" width="114.706" height="20.559"/>
	<rect x="145.059" y="291.559" style="fill:#ff9a44;" width="175" height="21.441"/>
	<rect x="88" y="444.559" style="fill:#ff9a44;" width="92.5" height="21.441"/>
	<rect x="285.5" y="444.559" style="fill:#ff9a44;" width="92.5" height="21.441"/>
	<path style="fill:#37495E;" d="M233,69c-4.419,0-8-3.581-8-8V8c0-4.418,3.581-8,8-8c4.418,0,8,3.582,8,8v53
		C241,65.419,237.418,69,233,69z"/>
	<rect x="204.766" y="61" style="fill:#ff9a44;" width="56.453" height="21.441"/>
</g>
</svg>
